<svg width="357" height="326" viewBox="0 0 357 326" fill="none" xmlns="http://www.w3.org/2000/svg">
<path d="M179 5V59.5H294V162H351.5V5H179Z" fill="#0892d0" stroke="#0892d0" stroke-width="10"/>
<path d="M177.5 321L177.5 266.5L62.5 266.5L62.5 164L4.99999 164L5 321L177.5 321Z" fill="#0892d0" stroke="#0892d0" stroke-width="10"/>
<path d="M101.031 175.321C101.359 181.886 106.84 185.974 115.238 185.915C124.076 185.852 129.481 181.469 129.417 174.364C129.367 168.896 126.288 165.866 119.195 164.426L114.939 163.553C110.805 162.703 109.109 161.47 109.089 159.297C109.065 156.612 111.491 154.886 115.177 154.86C118.742 154.835 121.346 156.672 121.713 159.453L128.647 159.404C128.37 153.131 122.838 148.824 115.075 148.879C106.945 148.936 101.638 153.344 101.698 159.984C101.746 165.355 104.926 168.677 111.359 169.975L115.957 170.919C120.287 171.816 122.056 173.098 122.077 175.344C122.101 178.005 119.407 179.879 115.575 179.906C111.424 179.936 108.527 178.125 108.159 175.271L101.031 175.321ZM141.367 184.827L141.049 149.599L133.676 149.651L133.994 184.879L141.367 184.827ZM154.52 155.462L160.917 155.417C164.579 155.391 166.892 157.474 166.923 160.819C166.953 164.212 164.799 166.23 161.088 166.256L154.618 166.301L154.52 155.462ZM154.669 171.965L160.7 171.923L167.382 184.644L175.731 184.586L168.184 170.722C172.222 169.083 174.531 165.16 174.49 160.668C174.427 153.661 169.627 149.398 161.888 149.453L147.094 149.557L147.412 184.785L154.785 184.733L154.669 171.965ZM187.001 184.506L186.683 149.278L179.31 149.33L179.628 184.558L187.001 184.506ZM200.076 149.184L192.703 149.236L192.911 172.306C192.982 180.118 198.791 185.327 207.799 185.263C216.808 185.2 222.498 179.911 222.427 172.098L222.219 149.028L214.846 149.08L215.047 171.394C215.088 175.837 212.452 178.687 207.74 178.721C203.028 178.754 200.317 175.941 200.277 171.498L200.076 149.184ZM226.906 174.435C227.234 181 232.716 185.088 241.114 185.029C249.952 184.967 255.357 180.583 255.292 173.479C255.243 168.01 252.164 164.98 245.07 163.54L240.814 162.667C236.681 161.817 234.985 160.584 234.965 158.411C234.941 155.726 237.367 154 241.053 153.974C244.618 153.949 247.222 155.786 247.589 158.567L254.523 158.518C254.246 152.245 248.714 147.938 240.95 147.993C232.821 148.05 227.514 152.458 227.574 159.098C227.622 164.469 230.802 167.791 237.235 169.089L241.833 170.033C246.163 170.93 247.932 172.212 247.952 174.458C247.976 177.119 245.283 178.993 241.45 179.02C237.3 179.05 234.403 177.239 234.035 174.385L226.906 174.435Z" fill="#0892d0"/>
</svg>
